# Made in Blockbench 5.0.4
mtllib Tijolos Branca.mtl

o cuboid
v -0.42636229810778065 0.1875 -0.06055694292215408
v -0.33261225439683295 0.1875 -0.4394430318413186
v -0.42636229810778065 -0.0625 -0.06055694292215408
v -0.2076122981077807 -0.0625 -0.43944305707784603
v -1.2923877018922192 0.1875 -0.560556942922154
v -1.1986376581812717 0.1875 -0.9394430318413185
v -1.2923877018922192 -0.0625 -0.560556942922154
v -1.0736377018922194 -0.0625 -0.9394430570778459
v 0.2154526264288832 0.1875 0.9196632487243597
v 0.6265679114787384 0.1875 0.6450294372498488
v 0.2154526264288832 -0.0625 0.9196632487243597
v 0.6265679114787384 -0.0625 0.6450294372498488
v -0.12656805401316729 0.1875 -0.020029555510730268
v 0.28454779753909265 0.1875 -0.16966309819618863
v -0.12656805401316729 -0.0625 -0.020029555510730268
v 0.28454779753909265 -0.0625 -0.16966309819618863
v 0.8638465741212067 0.1875 -0.09679426199890229
v 0.9770795200554305 0.1875 -0.5193869774476777
v 0.8638465741212067 -0.0625 -0.09679426199890229
v 0.9770795200554305 -0.0625 -0.5193869774476777
v -0.10207978406103191 0.1875 -0.35561323325729116
v 0.13615382829638523 0.1875 -0.7157059539310064
v -0.10207978406103191 -0.0625 -0.35561323325729116
v 0.13615382829638523 -0.0625 -0.7157059539310064
v -0.6579660126599544 0.16931875000000002 0.8422262079038907
v -0.44138052698102637 0.13626187499999998 1.0066291425260057
v -0.6477172308410196 -0.069501875 0.7690160470778071
v -0.43113143266209164 -0.102558125 0.9334184404340451
v -0.46436576745325525 0.45519937499999996 -0.0369980031519056
v -0.06028007670780999 0.4221425 0.12740504986541845
v -0.45411698563432046 0.21637875 -0.110208163977989
v -0.050031836154752596 0.18332187500000002 0.054194576539335015
vt 0.640625 0.53125
vt 0.53125 0.53125
vt 0.53125 0.46875
vt 0.640625 0.46875
vt 0.640625 0.390625
vt 0.640625 0.453125
vt 0.53125 0.453125
vt 0.53125 0.390625
vt 0 0.890625
vt 0.25 0.890625
vt 0.25 1
vt 0 1
vt 0.25 0.765625
vt 0.25 0.875
vt 0 0.875
vt 0 0.765625
vt 0.25 0.4375
vt 0.25 0.5
vt 0 0.5
vt 0 0.4375
vt 0.515625 0.5
vt 0.265625 0.5
vt 0.265625 0.4375
vt 0.515625 0.4375
vt 0.109375 0.421875
vt 0 0.421875
vt 0 0.359375
vt 0.109375 0.359375
vt 0.234375 0.359375
vt 0.234375 0.421875
vt 0.125 0.421875
vt 0.125 0.359375
vt 0 0.640625
vt 0.25 0.640625
vt 0.25 0.75
vt 0 0.75
vt 0.515625 0.890625
vt 0.515625 1
vt 0.265625 1
vt 0.265625 0.890625
vt 0.78125 0.9375
vt 0.78125 1
vt 0.53125 1
vt 0.53125 0.9375
vt 0.78125 0.921875
vt 0.53125 0.921875
vt 0.53125 0.859375
vt 0.78125 0.859375
vt 0.609375 0.375
vt 0.5 0.375
vt 0.5 0.3125
vt 0.609375 0.3125
vt 0.734375 0.3125
vt 0.734375 0.375
vt 0.625 0.375
vt 0.625 0.3125
vt 0 0.515625
vt 0.25 0.515625
vt 0.25 0.625
vt 0 0.625
vt 0.515625 0.515625
vt 0.515625 0.625
vt 0.265625 0.625
vt 0.265625 0.515625
vt 0.78125 0.625
vt 0.78125 0.6875
vt 0.53125 0.6875
vt 0.53125 0.625
vt 0.78125 0.609375
vt 0.53125 0.609375
vt 0.53125 0.546875
vt 0.78125 0.546875
vt 0.359375 0.421875
vt 0.25 0.421875
vt 0.25 0.359375
vt 0.359375 0.359375
vt 0.484375 0.359375
vt 0.484375 0.421875
vt 0.375 0.421875
vt 0.375 0.359375
vt 0.265625 0.765625
vt 0.515625 0.765625
vt 0.515625 0.875
vt 0.265625 0.875
vt 0.515625 0.640625
vt 0.515625 0.75
vt 0.265625 0.75
vt 0.265625 0.640625
vt 0.78125 0.78125
vt 0.78125 0.84375
vt 0.53125 0.84375
vt 0.53125 0.78125
vt 0.78125 0.765625
vt 0.53125 0.765625
vt 0.53125 0.703125
vt 0.78125 0.703125
vn 0.9707253135523317 0 0.24019235131187547
vn -0.9707253135523316 0 -0.2401923513118756
vn 0 1 0
vn 0 -1 0
vn -0.49999999999999994 0 0.8660254037844387
vn 0.4850712500726659 0.24253562503633297 -0.840168050416806
vn 0.5554798426238506 0 0.8315300021277537
vn -0.3420193559434682 0 -0.9396929073692188
vn 0 1 0
vn 0 -1 0
vn -0.9396924696194706 0 0.34202055865175757
vn 0.9220430074496768 0 -0.3870874480180874
vn 0.9659260725157689 0 0.2588181261702156
vn -0.8339993949820705 0 -0.5517653569856849
vn 0 1 0
vn 0 -1 0
vn -0.2588188432318095 0 0.9659258803801398
vn 0.22734271216547625 0 -0.9738148136197382
vn -0.6089342239768076 -0.25625441080693684 0.7506882094530012
vn 0.38110086983406977 0.28587964247194303 -0.8792240653165889
vn -0.07690610604823546 0.9530313706850894 0.29294480255262667
vn 0.07690773848034285 -0.9530313513718989 -0.2929444368205198
vn -0.9778405318650112 0.021862246155202422 -0.20820647548767868
vn 0.9236243007024181 -0.07555760731582693 0.3757781248671569
usemtl m_2caa3ea9-97d3-aa36-d34b-e19f920d3627
f 2/1/1 1/2/1 3/3/1 4/4/1
f 7/5/2 5/6/2 6/7/2 8/8/2
f 5/9/3 1/10/3 2/11/3 6/12/3
f 4/13/4 3/14/4 7/15/4 8/16/4
f 3/17/5 1/18/5 5/19/5 7/20/5
f 6/21/6 2/22/6 4/23/6 8/24/6
f 10/25/7 9/26/7 11/27/7 12/28/7
f 15/29/8 13/30/8 14/31/8 16/32/8
f 13/33/9 9/34/9 10/35/9 14/36/9
f 12/37/10 11/38/10 15/39/10 16/40/10
f 11/41/11 9/42/11 13/43/11 15/44/11
f 14/45/12 10/46/12 12/47/12 16/48/12
f 18/49/13 17/50/13 19/51/13 20/52/13
f 23/53/14 21/54/14 22/55/14 24/56/14
f 21/57/15 17/58/15 18/59/15 22/60/15
f 20/61/16 19/62/16 23/63/16 24/64/16
f 19/65/17 17/66/17 21/67/17 23/68/17
f 22/69/18 18/70/18 20/71/18 24/72/18
f 26/73/19 25/74/19 27/75/19 28/76/19
f 31/77/20 29/78/20 30/79/20 32/80/20
f 29/81/21 25/82/21 26/83/21 30/84/21
f 28/85/22 27/86/22 31/87/22 32/88/22
f 27/89/23 25/90/23 29/91/23 31/92/23
f 30/93/24 26/94/24 28/95/24 32/96/24